<svg width="114" height="157" viewBox="0 0 114 157" fill="none" xmlns="http://www.w3.org/2000/svg">
<path d="M17.3538 9.16329C24.4965 -0.836662 45.5 2 45.5 2V17.5C45.5 17.5 27.5 19.5 22 27.5C16.5 35.5 7.07909 23.5482 17.3538 9.16329Z" fill="#AD3838"/>
<path d="M97 9.5C89.6875 -0.696343 68.9999 2 68.9999 2V17.5C68.9999 17.5 86.9159 19.2227 92.5466 27.3798C98.1774 35.5369 107.519 24.1674 97 9.5Z" fill="#AD3838"/>
<path d="M17.6966 148.317C25.0091 158.513 45.5 156 45.5 156V139.5C45.5 139.5 28.084 137.777 22.4533 129.62C16.8225 121.463 7.17766 133.65 17.6966 148.317Z" fill="#AD3838"/>
<path d="M97.3034 148.317C89.9909 158.513 68.5 155.5 68.5 155.5V139.5C68.5 139.5 86.916 137.777 92.5467 129.62C98.1775 121.463 107.822 133.65 97.3034 148.317Z" fill="#AD3838"/>
<path d="M34.624 97.8285C34.624 100.564 34.2103 106.422 33.3715 115.453C32.6282 122.508 32.2491 127.166 32.2491 129.368C32.2491 132.201 32.9309 134.502 34.4858 136.064C36.063 137.743 38.5341 138.462 41.6312 138.462H46.0796V156H37.021C29.1089 156 22.8985 153.825 18.2804 149.566L18.2726 149.559C13.686 145.418 11.3379 139.528 11.3379 131.74C11.3379 128.531 11.5675 124.942 12.0298 120.971L12.03 120.968C12.4961 116.871 12.7747 114.46 12.8669 113.722C13.797 106.29 14.2717 101.25 14.2717 98.6658C14.2717 95.2545 13.1047 92.4558 10.7235 90.3828C8.49842 88.3585 5.20476 87.2689 1 86.9738V69.888C5.19212 69.6058 8.47339 68.6144 10.695 66.7811L10.7048 66.773L10.7143 66.7647C13.1151 64.6793 14.2717 61.7761 14.2717 58.1947C14.2717 55.61 13.797 50.5708 12.8669 43.1381C12.7745 42.3993 12.4958 40.0328 12.0299 36.0307C11.5675 31.9658 11.3379 28.3299 11.3379 25.12C11.3379 17.4297 13.6835 11.5844 18.2726 7.4409L18.2726 7.44094L18.2803 7.43383C22.8985 3.17539 29.1089 1 37.021 1H46.0796V18.5378H41.6312C38.5425 18.5378 36.077 19.2068 34.4982 20.7841C32.9345 22.3461 32.2491 24.6518 32.2491 27.4924C32.2491 29.6005 32.6282 34.306 33.3714 41.5451C34.2103 50.5775 34.624 56.4359 34.624 59.1716C34.624 64.1212 33.4103 68.1301 31.0523 71.2707L31.0469 71.2779L31.0417 71.2852C28.8046 74.3794 25.3336 76.4121 20.494 77.3074L19.6759 77.4587V78.2907V78.5698V79.3868L20.4765 79.5497C25.322 80.5357 28.8005 82.6149 31.0417 85.7148L31.0509 85.7276L31.0606 85.7401C33.4075 88.7793 34.624 92.7798 34.624 97.8285ZM93.506 77.3074C88.6698 76.4127 85.1456 74.3803 82.8133 71.2778C80.5453 68.1371 79.376 64.1251 79.376 59.1716C79.376 56.4359 79.7897 50.5775 80.6286 41.5451C81.3718 34.306 81.7509 29.6005 81.7509 27.4924C81.7509 24.6518 81.0655 22.3461 79.5018 20.7841C77.9229 19.2068 75.4575 18.5378 72.3688 18.5378H67.9204V1H76.979C84.8911 1 91.1015 3.17539 95.7196 7.43387L95.7274 7.4409C100.317 11.5844 102.662 17.4297 102.662 25.12C102.662 28.3302 102.432 31.9664 101.97 36.0319C101.504 40.0333 101.226 42.3993 101.133 43.1381C100.203 50.5708 99.7283 55.61 99.7283 58.1947C99.7283 61.7761 100.885 64.6793 103.286 66.7647L103.295 66.773L103.305 66.7811C105.527 68.6144 108.808 69.6058 113 69.888V86.9738C108.795 87.2689 105.502 88.3585 103.276 90.3828C100.895 92.4558 99.7283 95.2545 99.7283 98.6658C99.7283 101.25 100.203 106.29 101.133 113.722C101.225 114.46 101.504 116.871 101.97 120.968L101.97 120.971C102.432 124.942 102.662 128.531 102.662 131.74C102.662 139.528 100.314 145.418 95.7274 149.559L95.7197 149.566C91.1015 153.825 84.8911 156 76.979 156H67.9204V138.462H72.3688C75.466 138.462 77.937 137.743 79.5142 136.064C81.0691 134.502 81.7509 132.201 81.7509 129.368C81.7509 127.166 81.3718 122.508 80.6285 115.453C79.7897 106.422 79.376 100.564 79.376 97.8285C79.376 92.7731 80.5493 88.7677 82.8092 85.7276C85.1457 82.6165 88.6785 80.5356 93.5235 79.5497L94.3241 79.3868V78.5698V78.2907V77.4587L93.506 77.3074Z" stroke="#AD3838" stroke-width="2"/>
</svg>
