<?xml version="1.0" encoding="UTF-8" standalone="no"?>
<!-- Created with Inkscape (http://www.inkscape.org/) -->

<svg
   xmlns:dc="http://purl.org/dc/elements/1.1/"
   xmlns:cc="http://creativecommons.org/ns#"
   xmlns:rdf="http://www.w3.org/1999/02/22-rdf-syntax-ns#"
   xmlns:svg="http://www.w3.org/2000/svg"
   xmlns="http://www.w3.org/2000/svg"
   xmlns:sodipodi="http://sodipodi.sourceforge.net/DTD/sodipodi-0.dtd"
   xmlns:inkscape="http://www.inkscape.org/namespaces/inkscape"
   width="15.845698mm"
   height="7.4244609mm"
   viewBox="0 0 56.146179 26.307145"
   id="svg2"
   version="1.1"
   inkscape:version="0.91 r13725"
   sodipodi:docname="grey cloud 3.svg">
  <defs
     id="defs4">
    <clipPath
       id="clipEmfPath1"
       clipPathUnits="userSpaceOnUse">
      <path
         inkscape:connector-curvature="0"
         id="path3341"
         d="m 4.4748,-1.78992 582.6182,0 0,841.26192 -582.6182,0 z" />
    </clipPath>
    <pattern
       y="0"
       x="0"
       height="6"
       width="6"
       patternUnits="userSpaceOnUse"
       id="EMFhbasepattern" />
    <clipPath
       id="clipEmfPath1-1"
       clipPathUnits="userSpaceOnUse">
      <path
         inkscape:connector-curvature="0"
         id="path6104"
         d="m 0.894959,2.68488 531.606041,0 0,444.79512 -531.606041,0 z" />
    </clipPath>
    <pattern
       y="0"
       x="0"
       height="6"
       width="6"
       patternUnits="userSpaceOnUse"
       id="EMFhbasepattern-6" />
  </defs>
  <sodipodi:namedview
     id="base"
     pagecolor="#ffffff"
     bordercolor="#666666"
     borderopacity="1.0"
     inkscape:pageopacity="0.0"
     inkscape:pageshadow="2"
     inkscape:zoom="1.4"
     inkscape:cx="-36.307939"
     inkscape:cy="70.475159"
     inkscape:document-units="px"
     inkscape:current-layer="layer1"
     showgrid="false"
     fit-margin-top="0"
     fit-margin-left="0"
     fit-margin-right="0"
     fit-margin-bottom="0"
     inkscape:window-width="1366"
     inkscape:window-height="705"
     inkscape:window-x="-8"
     inkscape:window-y="-8"
     inkscape:window-maximized="1" />
  <metadata
     id="metadata7">
    <rdf:RDF>
      <cc:Work
         rdf:about="">
        <dc:format>image/svg+xml</dc:format>
        <dc:type
           rdf:resource="http://purl.org/dc/dcmitype/StillImage" />
        <dc:title></dc:title>
      </cc:Work>
    </rdf:RDF>
  </metadata>
  <g
     inkscape:label="Layer 1"
     inkscape:groupmode="layer"
     id="layer1"
     transform="translate(-381.67056,-678.38773)">
    <g
       id="g6297">
      <path
         style="fill:#44312f
         ;fill-opacity:1;fill-rule:evenodd;stroke:none"
         d="m 393.67109,683.41569 c -5.68311,0 -10.29265,2.33623 -10.29265,5.22506 0,2.8733 4.60954,5.22534 10.29265,5.22534 5.69863,0 10.29264,-2.35204 10.29264,-5.22534 0,-2.88883 -4.59401,-5.22506 -10.29264,-5.22506 z"
         id="path6107"
         inkscape:connector-curvature="0" />
      <path
         style="fill:none;stroke:#000000;stroke-width:0.67880154px;stroke-linecap:butt;stroke-linejoin:round;stroke-miterlimit:4;stroke-dasharray:none;stroke-opacity:1"
         d="m 393.67109,683.41569 c -5.68311,0 -10.29265,2.33623 -10.29265,5.22506 0,2.8733 4.60954,5.22534 10.29265,5.22534 5.69863,0 10.29264,-2.35204 10.29264,-5.22534 0,-2.88883 -4.59401,-5.22506 -10.29264,-5.22506"
         id="path6109"
         inkscape:connector-curvature="0" />
      <path
         style="fill:#44312f
         ;fill-opacity:1;fill-rule:evenodd;stroke:none"
         d="m 407.12095,681.06365 c -4.45177,-1.32617 -8.7297,-0.11064 -9.56648,2.71497 -0.83679,2.81009 2.08364,6.17249 6.55122,7.48284 4.45177,1.32588 8.7297,0.11035 9.56649,-2.69945 0.8365,-2.82589 -2.09974,-6.17248 -6.55123,-7.49836 z"
         id="path6111"
         inkscape:connector-curvature="0" />
      <path
         style="fill:none;stroke:#000000;stroke-width:0.67880154px;stroke-linecap:butt;stroke-linejoin:round;stroke-miterlimit:4;stroke-dasharray:none;stroke-opacity:1"
         d="m 407.12095,681.06365 c -4.45177,-1.32617 -8.7297,-0.11064 -9.56648,2.71497 -0.83679,2.81009 2.08364,6.17249 6.55122,7.48284 4.45177,1.32588 8.7297,0.11035 9.56649,-2.69945 0.8365,-2.82589 -2.09974,-6.17248 -6.55123,-7.49836"
         id="path6113"
         inkscape:connector-curvature="0" />
      <path
         style="fill:#44312f
         ;fill-opacity:1;fill-rule:evenodd;stroke:none"
         d="m 419.16563,678.72713 c -5.68311,0 -10.29264,2.33652 -10.29264,5.24115 0,2.88882 4.60953,5.24086 10.29264,5.24086 5.68283,0 10.29236,-2.35204 10.29236,-5.24086 0,-2.90463 -4.60953,-5.24115 -10.29236,-5.24115 z"
         id="path6115"
         inkscape:connector-curvature="0" />
      <path
         style="fill:none;stroke:#000000;stroke-width:0.67880154px;stroke-linecap:butt;stroke-linejoin:round;stroke-miterlimit:4;stroke-dasharray:none;stroke-opacity:1"
         d="m 419.16563,678.72713 c -5.68311,0 -10.29264,2.33652 -10.29264,5.24115 0,2.88882 4.60953,5.24086 10.29264,5.24086 5.68283,0 10.29236,-2.35204 10.29236,-5.24086 0,-2.90463 -4.60953,-5.24115 -10.29236,-5.24115"
         id="path6117"
         inkscape:connector-curvature="0" />
      <path
         style="fill:#44312f
         ;fill-opacity:1;fill-rule:evenodd;stroke:none"
         d="m 427.18498,683.41569 c -5.68311,0 -10.29265,2.58882 -10.29265,5.80926 0,3.20463 4.60954,5.79346 10.29265,5.79346 5.68282,0 10.29236,-2.58883 10.29236,-5.79346 0,-3.22044 -4.60954,-5.80926 -10.29236,-5.80926 z"
         id="path6119"
         inkscape:connector-curvature="0" />
      <path
         style="fill:none;stroke:#000000;stroke-width:0.67880154px;stroke-linecap:butt;stroke-linejoin:round;stroke-miterlimit:4;stroke-dasharray:none;stroke-opacity:1"
         d="m 427.18498,683.41569 c -5.68311,0 -10.29265,2.58882 -10.29265,5.80926 0,3.20463 4.60954,5.79346 10.29265,5.79346 5.68282,0 10.29236,-2.58883 10.29236,-5.79346 0,-3.22044 -4.60954,-5.80926 -10.29236,-5.80926"
         id="path6121"
         inkscape:connector-curvature="0" />
      <path
         style="fill:#44312f
         ;fill-opacity:1;fill-rule:evenodd;stroke:none"
         d="m 397.74384,693.94511 c -4.57793,0.59973 -7.98774,3.3466 -7.62452,6.12479 0.37874,2.77848 4.38856,4.5466 8.96648,3.93079 4.57793,-0.59972 7.98774,-3.34659 7.60871,-6.12507 -0.36293,-2.77819 -4.37275,-4.54631 -8.95067,-3.93051 z"
         id="path6123"
         inkscape:connector-curvature="0" />
      <path
         style="fill:none;stroke:#000000;stroke-width:2.40520239px;stroke-linecap:butt;stroke-linejoin:round;stroke-miterlimit:4;stroke-dasharray:none;stroke-opacity:1"
         clip-path="url(#clipEmfPath1-1)"
         d="m 366.933,407.878 c -16.221,2.125 -28.303,11.858 -27.016,21.702 1.342,9.845 15.55,16.11 31.771,13.928 16.221,-2.125 28.303,-11.858 26.96,-21.703 -1.286,-9.844 -15.494,-16.109 -31.715,-13.927"
         id="path6125"
         inkscape:connector-curvature="0"
         transform="matrix(0.28222222,0,0,0.28222222,294.18719,578.83288)" />
      <path
         style="fill:#44312f
         ;fill-opacity:1;fill-rule:evenodd;stroke:none"
         d="m 411.1937,694.13449 c -5.13052,0.67874 -8.98229,3.48854 -8.61935,6.26702 0.37903,2.77848 4.83052,4.4831 9.94523,3.80436 5.13052,-0.67875 8.98229,-3.48855 8.61935,-6.26703 -0.36322,-2.77819 -4.83052,-4.4831 -9.94523,-3.80435 z"
         id="path6127"
         inkscape:connector-curvature="0" />
      <path
         style="fill:none;stroke:#000000;stroke-width:2.40520239px;stroke-linecap:butt;stroke-linejoin:round;stroke-miterlimit:4;stroke-dasharray:none;stroke-opacity:1"
         clip-path="url(#clipEmfPath1-1)"
         d="m 414.59,408.549 c -18.179,2.405 -31.827,12.361 -30.541,22.206 1.343,9.845 17.116,15.885 35.239,13.48 18.179,-2.405 31.827,-12.361 30.541,-22.206 -1.287,-9.844 -17.116,-15.885 -35.239,-13.48"
         id="path6129"
         inkscape:connector-curvature="0"
         transform="matrix(0.28222222,0,0,0.28222222,294.18719,578.83288)" />
      <path
         style="fill:#44312f
         ;fill-opacity:1;fill-rule:evenodd;stroke:none"
         d="m 421.84928,688.57781 c -5.11471,0.69455 -8.88774,4.15177 -8.41389,7.75095 0.47357,3.58338 5.01989,5.95122 10.15041,5.27248 5.11471,-0.67875 8.88746,-4.15177 8.41389,-7.75095 -0.47357,-3.58338 -5.01989,-5.9515 -10.15041,-5.27248 z"
         id="path6131"
         inkscape:connector-curvature="0" />
      <path
         style="fill:none;stroke:#000000;stroke-width:0.67880154px;stroke-linecap:butt;stroke-linejoin:round;stroke-miterlimit:4;stroke-dasharray:none;stroke-opacity:1"
         d="m 421.84928,688.57781 c -5.11471,0.69455 -8.88774,4.15177 -8.41389,7.75095 0.47357,3.58338 5.01989,5.95122 10.15041,5.27248 5.11471,-0.67875 8.88746,-4.15177 8.41389,-7.75095 -0.47357,-3.58338 -5.01989,-5.9515 -10.15041,-5.27248"
         id="path6133"
         inkscape:connector-curvature="0" />
      <path
         style="fill:#44312f
         ;fill-opacity:1;fill-rule:evenodd;stroke:none"
         d="m 390.46645,687.58326 c -5.13051,0.67875 -8.90326,4.15177 -8.41389,7.73515 0.47357,3.59918 5.01989,5.96702 10.1346,5.27247 5.13052,-0.67874 8.90327,-4.13596 8.41389,-7.73514 -0.47356,-3.58338 -5.01988,-5.95122 -10.1346,-5.27248 z"
         id="path6135"
         inkscape:connector-curvature="0" />
      <path
         style="fill:none;stroke:#000000;stroke-width:0.67880154px;stroke-linecap:butt;stroke-linejoin:round;stroke-miterlimit:4;stroke-dasharray:none;stroke-opacity:1"
         d="m 390.46645,687.58326 c -5.13051,0.67875 -8.90326,4.15177 -8.41389,7.73515 0.47357,3.59918 5.01989,5.96702 10.1346,5.27247 5.13052,-0.67874 8.90327,-4.13596 8.41389,-7.73514 -0.47356,-3.58338 -5.01988,-5.95122 -10.1346,-5.27248"
         id="path6137"
         inkscape:connector-curvature="0" />
      <path
         style="fill:#44312f
         ;fill-opacity:1;fill-rule:evenodd;stroke:none"
         d="m 406.28416,684.34702 c -12.1395,2.44687 -21.26375,8.00354 -20.36402,12.4079 0.88392,4.40436 11.44495,5.98283 23.58446,3.53596 12.13951,-2.46239 21.26375,-8.00354 20.36403,-12.40762 -0.8842,-4.40436 -11.44496,-5.99891 -23.58447,-3.53624 z"
         id="path6139"
         inkscape:connector-curvature="0" />
    </g>
  </g>
</svg>
