<svg width="361" height="157" viewBox="0 0 361 157" fill="none" xmlns="http://www.w3.org/2000/svg">
<path d="M264.354 9.16329C271.497 -0.836662 292.5 2 292.5 2V17.5C292.5 17.5 274.5 19.5 269 27.5C263.5 35.5 254.079 23.5482 264.354 9.16329Z" fill="#AD3838"/>
<path d="M344 9.5C336.688 -0.696343 316 2 316 2V17.5C316 17.5 333.916 19.2227 339.547 27.3798C345.177 35.5369 354.519 24.1674 344 9.5Z" fill="#AD3838"/>
<path d="M264.697 148.317C272.009 158.513 292.5 156 292.5 156V139.5C292.5 139.5 275.084 137.777 269.453 129.62C263.823 121.463 254.178 133.65 264.697 148.317Z" fill="#AD3838"/>
<path d="M344.303 148.317C336.991 158.513 315.5 155.5 315.5 155.5V139.5C315.5 139.5 333.916 137.777 339.547 129.62C345.177 121.463 354.822 133.65 344.303 148.317Z" fill="#AD3838"/>
<path d="M26.2177 92.2267L36.3529 58.7947H51.5977L35.0127 105.667H17.3389L0.753906 58.7947H16.0824L26.2177 92.2267ZM64.8303 53.9227C62.3174 53.9227 60.2513 53.1947 58.6318 51.7387C57.0683 50.2267 56.2865 48.3787 56.2865 46.1947C56.2865 43.9547 57.0683 42.1067 58.6318 40.6507C60.2513 39.1387 62.3174 38.3827 64.8303 38.3827C67.2873 38.3827 69.2976 39.1387 70.8612 40.6507C72.4806 42.1067 73.2903 43.9547 73.2903 46.1947C73.2903 48.3787 72.4806 50.2267 70.8612 51.7387C69.2976 53.1947 67.2873 53.9227 64.8303 53.9227ZM71.9501 58.7947V105.667H57.6267V58.7947H71.9501ZM110.809 58.2907C116.282 58.2907 120.637 60.0827 123.876 63.6667C127.171 67.1947 128.818 72.0667 128.818 78.2827V105.667H114.578V80.2147C114.578 77.0787 113.769 74.6427 112.149 72.9067C110.53 71.1707 108.352 70.3027 105.616 70.3027C102.88 70.3027 100.702 71.1707 99.0823 72.9067C97.4629 74.6427 96.6532 77.0787 96.6532 80.2147V105.667H82.3298V58.7947H96.6532V65.0107C98.1051 62.9387 100.06 61.3147 102.517 60.1387C104.974 58.9067 107.738 58.2907 110.809 58.2907ZM135.924 82.2307C135.924 77.3587 136.901 73.1027 138.855 69.4627C140.866 65.8227 143.63 63.0227 147.148 61.0627C150.722 59.1027 154.798 58.1227 159.377 58.1227C165.24 58.1227 170.127 59.6627 174.035 62.7427C178 65.8227 180.597 70.1627 181.825 75.7627H166.581C165.296 72.1787 162.811 70.3867 159.126 70.3867C156.501 70.3867 154.407 71.4227 152.844 73.4947C151.28 75.5107 150.498 78.4227 150.498 82.2307C150.498 86.0387 151.28 88.9787 152.844 91.0507C154.407 93.0667 156.501 94.0747 159.126 94.0747C162.811 94.0747 165.296 92.2827 166.581 88.6987H181.825C180.597 94.1867 178 98.4987 174.035 101.635C170.071 104.771 165.185 106.339 159.377 106.339C154.798 106.339 150.722 105.359 147.148 103.399C143.63 101.439 140.866 98.6387 138.855 94.9987C136.901 91.3587 135.924 87.1027 135.924 82.2307ZM233.546 81.4747C233.546 82.8187 233.462 84.2187 233.295 85.6747H200.879C201.102 88.5867 202.023 90.8267 203.643 92.3947C205.318 93.9067 207.356 94.6627 209.757 94.6627C213.331 94.6627 215.816 93.1507 217.212 90.1267H232.457C231.675 93.2067 230.251 95.9787 228.185 98.4427C226.175 100.907 223.634 102.839 220.563 104.239C217.491 105.639 214.057 106.339 210.26 106.339C205.681 106.339 201.604 105.359 198.031 103.399C194.457 101.439 191.665 98.6387 189.654 94.9987C187.644 91.3587 186.639 87.1027 186.639 82.2307C186.639 77.3587 187.616 73.1027 189.571 69.4627C191.581 65.8227 194.373 63.0227 197.947 61.0627C201.521 59.1027 205.625 58.1227 210.26 58.1227C214.783 58.1227 218.804 59.0747 222.322 60.9787C225.84 62.8827 228.576 65.5987 230.53 69.1267C232.541 72.6547 233.546 76.7707 233.546 81.4747ZM218.887 77.6947C218.887 75.2307 218.05 73.2707 216.375 71.8147C214.699 70.3587 212.605 69.6307 210.092 69.6307C207.691 69.6307 205.653 70.3307 203.978 71.7307C202.358 73.1307 201.353 75.1187 200.962 77.6947H218.887Z" fill="black"/>
<path d="M281.624 97.8285C281.624 100.564 281.21 106.422 280.372 115.453C279.628 122.508 279.249 127.166 279.249 129.368C279.249 132.201 279.931 134.502 281.486 136.064C283.063 137.743 285.534 138.462 288.631 138.462H293.08V156H284.021C276.109 156 269.898 153.825 265.28 149.566L265.273 149.559C260.686 145.418 258.338 139.528 258.338 131.74C258.338 128.531 258.568 124.942 259.03 120.971L259.03 120.968C259.496 116.871 259.775 114.46 259.867 113.722C260.797 106.29 261.272 101.25 261.272 98.6658C261.272 95.2545 260.105 92.4558 257.724 90.3828C255.498 88.3585 252.205 87.2689 248 86.9738V69.888C252.192 69.6058 255.473 68.6144 257.695 66.7811L257.705 66.773L257.714 66.7647C260.115 64.6793 261.272 61.7761 261.272 58.1947C261.272 55.61 260.797 50.5708 259.867 43.1381C259.774 42.3993 259.496 40.0328 259.03 36.0307C258.568 31.9658 258.338 28.3299 258.338 25.12C258.338 17.4297 260.683 11.5844 265.273 7.4409L265.273 7.44094L265.28 7.43383C269.898 3.17539 276.109 1 284.021 1H293.08V18.5378H288.631C285.542 18.5378 283.077 19.2068 281.498 20.7841C279.935 22.3461 279.249 24.6518 279.249 27.4924C279.249 29.6005 279.628 34.306 280.371 41.5451C281.21 50.5775 281.624 56.4359 281.624 59.1716C281.624 64.1212 280.41 68.1301 278.052 71.2707L278.047 71.2779L278.042 71.2852C275.805 74.3794 272.334 76.4121 267.494 77.3074L266.676 77.4587V78.2907V78.5698V79.3868L267.476 79.5497C272.322 80.5357 275.801 82.6149 278.042 85.7148L278.051 85.7276L278.061 85.7401C280.408 88.7793 281.624 92.7798 281.624 97.8285ZM340.506 77.3074C335.67 76.4127 332.146 74.3803 329.813 71.2778C327.545 68.1371 326.376 64.1251 326.376 59.1716C326.376 56.4359 326.79 50.5775 327.629 41.5451C328.372 34.306 328.751 29.6005 328.751 27.4924C328.751 24.6518 328.065 22.3461 326.502 20.7841C324.923 19.2068 322.458 18.5378 319.369 18.5378H314.92V1H323.979C331.891 1 338.102 3.17539 342.72 7.43387L342.727 7.4409C347.317 11.5844 349.662 17.4297 349.662 25.12C349.662 28.3302 349.432 31.9664 348.97 36.0319C348.504 40.0333 348.226 42.3993 348.133 43.1381C347.203 50.5708 346.728 55.61 346.728 58.1947C346.728 61.7761 347.885 64.6793 350.286 66.7647L350.295 66.773L350.305 66.7811C352.527 68.6144 355.808 69.6058 360 69.888V86.9738C355.795 87.2689 352.502 88.3585 350.276 90.3828C347.895 92.4558 346.728 95.2545 346.728 98.6658C346.728 101.25 347.203 106.29 348.133 113.722C348.225 114.46 348.504 116.871 348.97 120.968L348.97 120.971C349.432 124.942 349.662 128.531 349.662 131.74C349.662 139.528 347.314 145.418 342.727 149.559L342.72 149.566C338.102 153.825 331.891 156 323.979 156H314.92V138.462H319.369C322.466 138.462 324.937 137.743 326.514 136.064C328.069 134.502 328.751 132.201 328.751 129.368C328.751 127.166 328.372 122.508 327.628 115.453C326.79 106.422 326.376 100.564 326.376 97.8285C326.376 92.7731 327.549 88.7677 329.809 85.7276C332.146 82.6165 335.678 80.5356 340.524 79.5497L341.324 79.3868V78.5698V78.2907V77.4587L340.506 77.3074Z" stroke="#AD3838" stroke-width="2"/>
</svg>
