<svg width="235" height="70" viewBox="0 0 235 70" fill="none" xmlns="http://www.w3.org/2000/svg">
<path d="M26.2177 54.2267L36.3529 20.7947H51.5977L35.0127 67.6667H17.3389L0.753906 20.7947H16.0824L26.2177 54.2267ZM64.8303 15.9227C62.3174 15.9227 60.2513 15.1947 58.6318 13.7387C57.0683 12.2267 56.2865 10.3787 56.2865 8.19467C56.2865 5.95467 57.0683 4.10667 58.6318 2.65067C60.2513 1.13866 62.3174 0.382662 64.8303 0.382662C67.2873 0.382662 69.2976 1.13866 70.8612 2.65067C72.4806 4.10667 73.2903 5.95467 73.2903 8.19467C73.2903 10.3787 72.4806 12.2267 70.8612 13.7387C69.2976 15.1947 67.2873 15.9227 64.8303 15.9227ZM71.9501 20.7947V67.6667H57.6267V20.7947H71.9501ZM110.809 20.2907C116.282 20.2907 120.637 22.0827 123.876 25.6667C127.171 29.1947 128.818 34.0667 128.818 40.2827V67.6667H114.578V42.2147C114.578 39.0787 113.769 36.6427 112.149 34.9067C110.53 33.1707 108.352 32.3027 105.616 32.3027C102.88 32.3027 100.702 33.1707 99.0823 34.9067C97.4629 36.6427 96.6532 39.0787 96.6532 42.2147V67.6667H82.3298V20.7947H96.6532V27.0107C98.1051 24.9387 100.06 23.3147 102.517 22.1387C104.974 20.9067 107.738 20.2907 110.809 20.2907ZM135.924 44.2307C135.924 39.3587 136.901 35.1027 138.855 31.4627C140.866 27.8227 143.63 25.0227 147.148 23.0627C150.722 21.1027 154.798 20.1227 159.377 20.1227C165.24 20.1227 170.127 21.6627 174.035 24.7427C178 27.8227 180.597 32.1627 181.825 37.7627H166.581C165.296 34.1787 162.811 32.3867 159.126 32.3867C156.501 32.3867 154.407 33.4227 152.844 35.4947C151.28 37.5107 150.498 40.4227 150.498 44.2307C150.498 48.0387 151.28 50.9787 152.844 53.0507C154.407 55.0667 156.501 56.0747 159.126 56.0747C162.811 56.0747 165.296 54.2827 166.581 50.6987H181.825C180.597 56.1867 178 60.4987 174.035 63.6347C170.071 66.7707 165.185 68.3387 159.377 68.3387C154.798 68.3387 150.722 67.3587 147.148 65.3987C143.63 63.4387 140.866 60.6387 138.855 56.9987C136.901 53.3587 135.924 49.1027 135.924 44.2307ZM233.546 43.4747C233.546 44.8187 233.462 46.2187 233.295 47.6747H200.879C201.102 50.5867 202.023 52.8267 203.643 54.3947C205.318 55.9067 207.356 56.6627 209.757 56.6627C213.331 56.6627 215.816 55.1507 217.212 52.1267H232.457C231.675 55.2067 230.251 57.9787 228.185 60.4427C226.175 62.9067 223.634 64.8387 220.563 66.2387C217.491 67.6387 214.057 68.3387 210.26 68.3387C205.681 68.3387 201.604 67.3587 198.031 65.3987C194.457 63.4387 191.665 60.6387 189.654 56.9987C187.644 53.3587 186.639 49.1027 186.639 44.2307C186.639 39.3587 187.616 35.1027 189.571 31.4627C191.581 27.8227 194.373 25.0227 197.947 23.0627C201.521 21.1027 205.625 20.1227 210.26 20.1227C214.783 20.1227 218.804 21.0747 222.322 22.9787C225.84 24.8827 228.576 27.5987 230.53 31.1267C232.541 34.6547 233.546 38.7707 233.546 43.4747ZM218.887 39.6947C218.887 37.2307 218.05 35.2707 216.375 33.8147C214.699 32.3587 212.605 31.6307 210.092 31.6307C207.691 31.6307 205.653 32.3307 203.978 33.7307C202.358 35.1307 201.353 37.1187 200.962 39.6947H218.887Z" fill="black"/>
</svg>
